# xmcd
#
# Track frame offsets: 
#        150
#        14354
#        29722
#        46716
#        63488
#        78326
#        90455
#        105790
#        122661
#        139496
#        156136
#        173270
#        187964
#
# Disc length: 2702 seconds
#
# Revision: 0
# Processed by: cddbd v1.5.2PL0 Copyright (c) Steve Scherf et al.
# Submitted via: ExactAudioCopy v1.3
#
DISCID=970a8c0d
DTITLE=Linek Snutenhobel - Plattdüütschen Blues
DYEAR=2007
DGENRE=Blues
TTITLE0=Wedderbericht
TTITLE1=Hamborger Hoben
TTITLE2=Ackersnacker
TTITLE3=Neptun
TTITLE4=Mööd as'n Pogg
TTITLE5=Butenhamborgers
TTITLE6=Ümdreihn
TTITLE7=Mullworp Blues
TTITLE8=Bangbüx
TTITLE9=Blinde Passagier
TTITLE10=Seemannswunsch
TTITLE11=Sankt Petersborg
TTITLE12=Dresden
EXTD=
EXTT0=
EXTT1=
EXTT2=
EXTT3=
EXTT4=
EXTT5=
EXTT6=
EXTT7=
EXTT8=
EXTT9=
EXTT10=
EXTT11=
EXTT12=
PLAYORDER=
